<?xml version="1.0" encoding="utf-8"?>
<!-- Generator: Adobe Illustrator 25.0.1, SVG Export Plug-In . SVG Version: 6.00 Build 0)  -->
<svg version="1.1" id="Layer_1" xmlns="http://www.w3.org/2000/svg" xmlns:xlink="http://www.w3.org/1999/xlink" x="0px" y="0px"
	 viewBox="0 0 350 78" style="enable-background:new 0 0 350 78;" xml:space="preserve">
<style type="text/css">
	.st0{fill:#C0392B;}
	.st1{fill:#eee;}
</style>
<path class="st0" d="M97.54,29.6h-2.03c-1.12,0-2.03,0.91-2.03,2.03v6.09c0,9.49-8.18,17.1-17.86,16.16
	C67.19,53.05,61.01,45.47,61.01,37v-5.37c0-1.12-0.91-2.03-2.03-2.03h-2.03c-1.12,0-2.03,0.91-2.03,2.03v5.09
	c0,11.37,8.11,21.5,19.28,23.04v4.33h-7.1c-1.12,0-2.03,0.91-2.03,2.03v2.03c0,1.12,0.91,2.03,2.03,2.03H87.4
	c1.12,0,2.03-0.91,2.03-2.03v-2.03c0-1.12-0.91-2.03-2.03-2.03h-7.1v-4.28C91.16,58.33,99.57,49,99.57,37.72v-6.09
	C99.57,30.51,98.66,29.6,97.54,29.6z M77.25,49.9c6.72,0,12.18-5.45,12.18-12.18H78.6c-0.75,0-1.35-0.45-1.35-1.01v-2.03
	c0-0.56,0.61-1.01,1.35-1.01h10.82V29.6H78.6c-0.75,0-1.35-0.45-1.35-1.01v-2.03c0-0.56,0.61-1.01,1.35-1.01h10.82v-4.06H78.6
	c-0.75,0-1.35-0.45-1.35-1.01v-2.03c0-0.56,0.61-1.01,1.35-1.01h10.82c0-6.72-5.45-12.18-12.18-12.18
	c-6.72,0-12.18,5.45-12.18,12.18v20.29C65.07,44.45,70.52,49.9,77.25,49.9z"/>
<path class="st1" d="M32.47,70.05c-4.11,0-7.77-0.94-10.98-2.81c-3.21-1.87-5.73-4.42-7.55-7.63c-1.82-3.21-2.73-6.84-2.73-10.9
	c0-4.16,0.9-7.86,2.7-11.09c1.8-3.24,4.26-5.76,7.39-7.59c3.13-1.82,6.73-2.73,10.78-2.73c3.03,0,5.8,0.58,8.32,1.73
	c2.52,1.16,4.78,2.89,6.78,5.2c0.72,0.82,0.97,1.67,0.77,2.54c-0.21,0.87-0.77,1.64-1.69,2.31c-0.72,0.51-1.52,0.68-2.39,0.5
	c-0.87-0.18-1.67-0.63-2.39-1.35c-2.52-2.67-5.65-4.01-9.4-4.01c-2.62,0-4.93,0.6-6.93,1.81c-2,1.21-3.57,2.89-4.7,5.04
	c-1.13,2.16-1.69,4.7-1.69,7.63c0,2.77,0.58,5.24,1.73,7.39c1.16,2.16,2.76,3.86,4.81,5.12c2.05,1.26,4.44,1.89,7.16,1.89
	c1.8,0,3.38-0.22,4.74-0.65c1.36-0.44,2.61-1.12,3.74-2.04c0.82-0.67,1.67-1.04,2.54-1.12c0.87-0.08,1.64,0.17,2.31,0.73
	c0.87,0.72,1.36,1.53,1.46,2.43c0.1,0.9-0.21,1.71-0.92,2.43C42.63,68.33,38.01,70.05,32.47,70.05z"/>
<path class="st1" d="M110.72,69.82c-1.13,0-2.07-0.37-2.81-1.12c-0.75-0.74-1.12-1.68-1.12-2.81V31.53c0-1.18,0.37-2.13,1.12-2.85
	c0.74-0.72,1.68-1.08,2.81-1.08c1.18,0,2.13,0.36,2.85,1.08c0.72,0.72,1.08,1.67,1.08,2.85v34.35c0,1.13-0.36,2.07-1.08,2.81
	C112.85,69.44,111.9,69.82,110.72,69.82z M142.38,69.82c-1.13,0-2.07-0.37-2.81-1.12c-0.75-0.74-1.12-1.68-1.12-2.81V46.94
	c0-2.93-0.54-5.31-1.62-7.16c-1.08-1.85-2.53-3.22-4.35-4.12c-1.82-0.9-3.92-1.35-6.28-1.35c-2.16,0-4.11,0.44-5.85,1.31
	c-1.75,0.87-3.13,2.04-4.16,3.5c-1.03,1.46-1.54,3.15-1.54,5.04h-4.85c0-3.23,0.78-6.12,2.35-8.67c1.57-2.54,3.71-4.56,6.43-6.05
	c2.72-1.49,5.78-2.23,9.17-2.23c3.54,0,6.71,0.76,9.51,2.27c2.8,1.52,5.01,3.74,6.62,6.66c1.62,2.93,2.43,6.52,2.43,10.78v18.95
	c0,1.13-0.37,2.07-1.12,2.81C144.45,69.44,143.51,69.82,142.38,69.82z"/>
<path class="st1" d="M156.79,35.77c-1.08,0-1.95-0.31-2.62-0.92c-0.67-0.62-1-1.39-1-2.31c0-1.03,0.33-1.85,1-2.46
	c0.67-0.62,1.54-0.92,2.62-0.92h19.1c1.08,0,1.95,0.31,2.62,0.92c0.67,0.62,1,1.44,1,2.46c0,0.92-0.33,1.69-1,2.31
	c-0.67,0.62-1.54,0.92-2.62,0.92H156.79z M164.03,69.74c-1.13,0-2.07-0.39-2.81-1.16c-0.75-0.77-1.12-1.69-1.12-2.77V27.84
	c0-3.85,0.76-7.18,2.27-9.98c1.51-2.8,3.9-4.97,7.16-6.51c3.26-1.54,7.48-2.31,12.67-2.31c2.46,0,4.61,0.28,6.43,0.85
	c1.82,0.57,3.25,1.34,4.28,2.31c1.03,0.98,1.54,2.13,1.54,3.47c0,2.26-1.39,3.39-4.16,3.39c-1.08,0-2.04-0.23-2.89-0.69
	c-0.85-0.46-1.68-1-2.5-1.62c-0.82-0.62-1.69-1.16-2.62-1.62c-0.92-0.46-2-0.69-3.24-0.69c-1.9,0-3.7,0.37-5.39,1.12
	c-1.69,0.75-3.07,2.09-4.12,4.04c-1.05,1.95-1.58,4.7-1.58,8.24v37.97c0,1.08-0.37,2-1.12,2.77
	C166.09,69.35,165.15,69.74,164.03,69.74z M189.68,69.74c-1.13,0-2.07-0.37-2.81-1.12c-0.75-0.74-1.12-1.68-1.12-2.81V31.53
	c0-1.18,0.37-2.13,1.12-2.85c0.74-0.72,1.68-1.08,2.81-1.08c1.18,0,2.13,0.36,2.85,1.08c0.72,0.72,1.08,1.67,1.08,2.85v34.28
	c0,1.13-0.36,2.07-1.08,2.81C191.81,69.37,190.86,69.74,189.68,69.74z"/>
<path class="st1" d="M211.86,69.82c-1.13,0-2.07-0.37-2.81-1.12c-0.75-0.74-1.12-1.68-1.12-2.81V31.61c0-1.18,0.37-2.13,1.12-2.85
	c0.74-0.72,1.68-1.08,2.81-1.08c1.18,0,2.13,0.36,2.85,1.08c0.72,0.72,1.08,1.67,1.08,2.85v34.28c0,1.13-0.36,2.07-1.08,2.81
	C213.99,69.44,213.04,69.82,211.86,69.82z M237.59,69.82c-1.13,0-2.07-0.37-2.81-1.12c-0.75-0.74-1.12-1.68-1.12-2.81V43.86
	c0-3.23-0.8-5.63-2.39-7.2c-1.59-1.57-3.67-2.35-6.24-2.35c-2.67,0-4.88,0.92-6.62,2.77c-1.75,1.85-2.62,4.21-2.62,7.09h-4.85
	c0-3.34,0.67-6.28,2-8.82c1.33-2.54,3.18-4.53,5.55-5.97c2.36-1.44,5.06-2.16,8.09-2.16c2.93,0,5.52,0.64,7.78,1.93
	c2.26,1.28,4.02,3.17,5.28,5.66c1.26,2.49,1.89,5.51,1.89,9.05v22.03c0,1.13-0.36,2.07-1.08,2.81
	C239.72,69.44,238.77,69.82,237.59,69.82z M263.24,69.82c-1.13,0-2.07-0.37-2.81-1.12c-0.75-0.74-1.12-1.68-1.12-2.81V43.86
	c0-3.23-0.8-5.63-2.39-7.2c-1.59-1.57-3.67-2.35-6.24-2.35c-2.67,0-4.87,0.92-6.59,2.77c-1.72,1.85-2.58,4.21-2.58,7.09h-6.39
	c0-3.34,0.72-6.28,2.16-8.82s3.45-4.53,6.05-5.97c2.59-1.44,5.56-2.16,8.9-2.16c2.93,0,5.52,0.64,7.78,1.93
	c2.26,1.28,4.02,3.17,5.28,5.66c1.26,2.49,1.89,5.51,1.89,9.05v22.03c0,1.13-0.36,2.07-1.08,2.81
	C265.37,69.44,264.42,69.82,263.24,69.82z"/>
<path class="st1" d="M284.88,20.75c-1.39,0-2.58-0.5-3.58-1.5c-1-1-1.5-2.2-1.5-3.58c0-1.39,0.5-2.58,1.5-3.58
	c1-1,2.19-1.5,3.58-1.5s2.58,0.5,3.58,1.5s1.5,2.2,1.5,3.58c0,1.39-0.5,2.58-1.5,3.58S286.27,20.75,284.88,20.75z M284.88,69.74
	c-1.13,0-2.07-0.37-2.81-1.12c-0.75-0.74-1.12-1.68-1.12-2.81V31.53c0-1.18,0.37-2.13,1.12-2.85c0.74-0.72,1.68-1.08,2.81-1.08
	c1.18,0,2.13,0.36,2.85,1.08c0.72,0.72,1.08,1.67,1.08,2.85v34.28c0,1.13-0.36,2.07-1.08,2.81
	C287.01,69.37,286.06,69.74,284.88,69.74z"/>
<path class="st1" d="M322.54,70.05c-4.11,0-7.77-0.94-10.98-2.81c-3.21-1.87-5.73-4.42-7.55-7.63c-1.82-3.21-2.73-6.84-2.73-10.9
	c0-4.16,0.9-7.86,2.7-11.09c1.8-3.24,4.26-5.76,7.39-7.59c3.13-1.82,6.73-2.73,10.78-2.73c3.03,0,5.8,0.58,8.32,1.73
	c2.52,1.16,4.78,2.89,6.78,5.2c0.72,0.82,0.98,1.67,0.77,2.54c-0.21,0.87-0.77,1.64-1.69,2.31c-0.72,0.51-1.52,0.68-2.39,0.5
	c-0.87-0.18-1.67-0.63-2.39-1.35c-2.52-2.67-5.65-4.01-9.4-4.01c-2.62,0-4.93,0.6-6.93,1.81c-2,1.21-3.57,2.89-4.7,5.04
	c-1.13,2.16-1.69,4.7-1.69,7.63c0,2.77,0.58,5.24,1.73,7.39s2.76,3.86,4.81,5.12c2.05,1.26,4.44,1.89,7.16,1.89
	c1.8,0,3.38-0.22,4.74-0.65c1.36-0.44,2.61-1.12,3.74-2.04c0.82-0.67,1.67-1.04,2.54-1.12c0.87-0.08,1.64,0.17,2.31,0.73
	c0.87,0.72,1.36,1.53,1.46,2.43c0.1,0.9-0.21,1.71-0.92,2.43C332.71,68.33,328.09,70.05,322.54,70.05z"/>
</svg>
